<svg xmlns="http://www.w3.org/2000/svg" xmlns:xlink="http://www.w3.org/1999/xlink" width="500" zoomAndPan="magnify" viewBox="0 0 375 374.999991" height="500" preserveAspectRatio="xMidYMid meet" version="1.0"><defs><g/><clipPath id="id1"><path d="M 0 179.71875 L 375 179.71875 L 375 208.21875 L 0 208.21875 Z M 0 179.71875 " clip-rule="nonzero"/></clipPath></defs><rect x="-37.5" width="450" fill="#ffffff" y="-37.499999" height="449.999989" fill-opacity="1"/><rect x="-37.5" width="450" fill="#ffffff" y="-37.499999" height="449.999989" fill-opacity="1"/><rect x="-37.5" width="450" fill="#f6f3f0" y="-37.499999" height="449.999989" fill-opacity="1"/><g fill="#dcdcdc" fill-opacity="1"><g transform="translate(95.155049, 236.468656)"><g><path d="M 63.234375 -60.84375 C 63.234375 -57.320312 62.515625 -54.039062 61.078125 -51 C 58.441406 -45.320312 53.800781 -41.363281 47.15625 -39.125 C 44.84375 -38.320312 42.84375 -37.921875 41.15625 -37.921875 C 36.195312 -37.921875 31.914062 -38.84375 28.3125 -40.6875 L 28.3125 -41.875 C 34.15625 -40.59375 39.554688 -41.234375 44.515625 -43.796875 C 48.921875 -46.035156 51.921875 -49.71875 53.515625 -54.84375 C 53.992188 -56.4375 54.234375 -57.953125 54.234375 -59.390625 C 54.234375 -60.835938 54.234375 -61.722656 54.234375 -62.046875 C 54.078125 -67.640625 52.597656 -72.097656 49.796875 -75.421875 C 46.992188 -78.742188 43.078125 -80.40625 38.046875 -80.40625 L 24.234375 -80.40625 L 24.234375 -8.765625 C 24.316406 -6.679688 25.097656 -4.898438 26.578125 -3.421875 C 28.054688 -1.941406 29.835938 -1.203125 31.921875 -1.203125 L 33.484375 -1.203125 L 33.484375 0 L 7.203125 0 L 7.203125 -1.203125 L 8.765625 -1.203125 C 10.835938 -1.203125 12.613281 -1.941406 14.09375 -3.421875 C 15.570312 -4.898438 16.351562 -6.679688 16.4375 -8.765625 L 16.4375 -75.84375 C 16.195312 -77.84375 15.359375 -79.5 13.921875 -80.8125 C 12.484375 -82.132812 10.765625 -82.796875 8.765625 -82.796875 L 7.3125 -82.796875 L 7.203125 -84 L 38.515625 -84 C 46.203125 -84 52.242188 -81.9375 56.640625 -77.8125 C 61.035156 -73.695312 63.234375 -68.039062 63.234375 -60.84375 Z M 63.234375 -60.84375 "/></g></g></g><g fill="#dcdcdc" fill-opacity="1"><g transform="translate(164.395084, 236.468656)"><g/></g></g><g fill="#dcdcdc" fill-opacity="1"><g transform="translate(194.395093, 236.468656)"><g><path d="M 85.921875 -1.203125 L 86.890625 -1.203125 L 86.890625 0 L 59.890625 0 L 59.890625 -1.203125 L 60.96875 -1.203125 C 62.644531 -1.203125 63.898438 -1.738281 64.734375 -2.8125 C 65.578125 -3.894531 66 -4.914062 66 -5.875 C 66 -6.832031 65.84375 -7.796875 65.53125 -8.765625 L 57.84375 -29.15625 L 25.4375 -29.15625 L 17.40625 -8.640625 C 17.082031 -7.679688 16.921875 -6.738281 16.921875 -5.8125 C 16.921875 -4.894531 17.335938 -3.894531 18.171875 -2.8125 C 19.015625 -1.738281 20.28125 -1.203125 21.96875 -1.203125 L 23.046875 -1.203125 L 23.046875 0 L -1.078125 0 L -1.078125 -1.203125 L 0 -1.203125 C 2 -1.203125 3.957031 -1.84375 5.875 -3.125 C 7.800781 -4.40625 9.363281 -6.285156 10.5625 -8.765625 L 37.6875 -73.3125 C 40.644531 -79.800781 42.125 -83.925781 42.125 -85.6875 L 43.203125 -85.6875 L 75.359375 -8.765625 C 76.484375 -6.285156 78.003906 -4.40625 79.921875 -3.125 C 81.847656 -1.84375 83.847656 -1.203125 85.921875 -1.203125 Z M 26.890625 -32.765625 L 56.40625 -32.765625 L 42 -71.28125 Z M 26.890625 -32.765625 "/></g></g></g><g clip-path="url(#id1)"><path fill="#f6f3f0" d="M 0.046875 179.71875 L 374.953125 179.71875 L 374.953125 208.21875 L 0.046875 208.21875 L 0.046875 179.71875 " fill-opacity="1" fill-rule="nonzero"/></g><g fill="#dcdcdc" fill-opacity="1"><g transform="translate(84.669112, 198.476046)"><g><path d="M 7.53125 -6 C 7.53125 -5.632812 7.457031 -5.285156 7.3125 -4.953125 C 7.039062 -4.328125 6.535156 -3.894531 5.796875 -3.65625 C 5.578125 -3.582031 5.378906 -3.546875 5.203125 -3.546875 C 4.628906 -3.546875 4.117188 -3.695312 3.671875 -4 L 3.671875 -4.109375 C 4.273438 -4.097656 4.757812 -4.296875 5.125 -4.703125 C 5.445312 -5.054688 5.609375 -5.515625 5.609375 -6.078125 C 5.609375 -6.660156 5.46875 -7.109375 5.1875 -7.421875 C 4.914062 -7.734375 4.539062 -7.890625 4.0625 -7.890625 L 3.265625 -7.890625 L 3.265625 -0.875 C 3.265625 -0.664062 3.335938 -0.488281 3.484375 -0.34375 C 3.640625 -0.195312 3.820312 -0.125 4.03125 -0.125 L 4.1875 -0.125 L 4.1875 0 L 0.546875 0 L 0.546875 -0.125 L 0.703125 -0.125 C 0.910156 -0.125 1.085938 -0.195312 1.234375 -0.34375 C 1.378906 -0.488281 1.457031 -0.664062 1.46875 -0.875 L 1.46875 -7.578125 C 1.46875 -7.785156 1.390625 -7.953125 1.234375 -8.078125 C 1.085938 -8.210938 0.910156 -8.28125 0.703125 -8.28125 L 0.546875 -8.28125 L 0.546875 -8.40625 L 4.546875 -8.40625 C 5.523438 -8.40625 6.257812 -8.195312 6.75 -7.78125 C 7.269531 -7.332031 7.53125 -6.738281 7.53125 -6 Z M 7.53125 -6 "/></g></g></g><g fill="#dcdcdc" fill-opacity="1"><g transform="translate(99.729131, 198.476046)"><g><path d="M 3.390625 -6.703125 L 3.015625 -6.703125 L 3.015625 -0.75 C 3.015625 -0.5625 3.078125 -0.410156 3.203125 -0.296875 C 3.335938 -0.179688 3.488281 -0.125 3.65625 -0.125 L 3.796875 -0.125 L 3.796875 0 L 0.484375 0 L 0.484375 -0.125 L 0.640625 -0.125 C 0.816406 -0.125 0.960938 -0.179688 1.078125 -0.296875 C 1.203125 -0.421875 1.265625 -0.570312 1.265625 -0.75 L 1.265625 -6.453125 C 1.265625 -6.628906 1.203125 -6.773438 1.078125 -6.890625 C 0.960938 -7.015625 0.816406 -7.078125 0.640625 -7.078125 L 0.484375 -7.078125 L 0.484375 -7.203125 L 4.171875 -7.203125 C 4.890625 -7.203125 5.492188 -7.0625 5.984375 -6.78125 C 6.523438 -6.46875 6.796875 -5.953125 6.796875 -5.234375 C 6.796875 -4.765625 6.65625 -4.34375 6.375 -3.96875 C 6.101562 -3.601562 5.691406 -3.378906 5.140625 -3.296875 C 5.347656 -3.222656 5.554688 -3.085938 5.765625 -2.890625 C 5.984375 -2.691406 6.15625 -2.488281 6.28125 -2.28125 C 6.539062 -1.820312 6.8125 -1.398438 7.09375 -1.015625 C 7.375 -0.640625 7.597656 -0.394531 7.765625 -0.28125 C 7.941406 -0.175781 8.15625 -0.125 8.40625 -0.125 L 8.40625 0 L 7.390625 0 C 6.722656 0 6.210938 -0.078125 5.859375 -0.234375 C 5.503906 -0.398438 5.1875 -0.707031 4.90625 -1.15625 C 4.476562 -1.84375 4.210938 -2.382812 4.109375 -2.78125 C 4.003906 -3.019531 3.882812 -3.195312 3.75 -3.3125 C 3.625 -3.4375 3.503906 -3.507812 3.390625 -3.53125 L 3.390625 -3.625 L 3.6875 -3.625 C 4.363281 -3.632812 4.78125 -4.035156 4.9375 -4.828125 C 4.96875 -4.941406 4.984375 -5.039062 4.984375 -5.125 C 4.984375 -5.21875 4.976562 -5.34375 4.96875 -5.5 C 4.957031 -5.65625 4.90625 -5.832031 4.8125 -6.03125 C 4.726562 -6.226562 4.613281 -6.367188 4.46875 -6.453125 C 4.21875 -6.609375 3.960938 -6.691406 3.703125 -6.703125 C 3.609375 -6.703125 3.503906 -6.703125 3.390625 -6.703125 Z M 3.390625 -6.703125 "/></g></g></g><g fill="#dcdcdc" fill-opacity="1"><g transform="translate(114.813148, 198.476046)"><g><path d="M 8 -0.125 L 8.09375 -0.125 L 8.09375 0 L 4.5625 0 L 4.5625 -0.125 L 4.65625 -0.125 C 4.820312 -0.125 4.9375 -0.171875 5 -0.265625 C 5.070312 -0.359375 5.109375 -0.441406 5.109375 -0.515625 C 5.109375 -0.597656 5.09375 -0.6875 5.0625 -0.78125 L 4.59375 -1.890625 L 2.0625 -1.890625 L 1.578125 -0.765625 C 1.546875 -0.679688 1.53125 -0.597656 1.53125 -0.515625 C 1.53125 -0.429688 1.566406 -0.34375 1.640625 -0.25 C 1.710938 -0.164062 1.832031 -0.125 2 -0.125 L 2.09375 -0.125 L 2.09375 0 L -0.3125 0 L -0.3125 -0.125 L -0.21875 -0.125 C -0.0390625 -0.125 0.128906 -0.175781 0.296875 -0.28125 C 0.460938 -0.382812 0.597656 -0.539062 0.703125 -0.75 L 3.1875 -6.078125 C 3.539062 -6.867188 3.722656 -7.351562 3.734375 -7.53125 L 3.84375 -7.53125 L 7.0625 -0.796875 C 7.164062 -0.554688 7.300781 -0.382812 7.46875 -0.28125 C 7.644531 -0.175781 7.820312 -0.125 8 -0.125 Z M 2.265625 -2.359375 L 4.390625 -2.359375 L 3.34375 -4.859375 Z M 2.265625 -2.359375 "/></g></g></g><g fill="#dcdcdc" fill-opacity="1"><g transform="translate(129.741161, 198.476046)"><g><path d="M 4.734375 0.15625 C 3.390625 0.144531 2.332031 -0.1875 1.5625 -0.84375 C 0.789062 -1.507812 0.40625 -2.425781 0.40625 -3.59375 C 0.40625 -4.769531 0.785156 -5.691406 1.546875 -6.359375 C 2.316406 -7.023438 3.378906 -7.359375 4.734375 -7.359375 C 5.785156 -7.359375 6.679688 -7.171875 7.421875 -6.796875 L 7.421875 -4.890625 L 7.34375 -4.890625 C 7.144531 -5.609375 6.835938 -6.117188 6.421875 -6.421875 C 6.003906 -6.722656 5.476562 -6.875 4.84375 -6.875 C 4 -6.875 3.351562 -6.582031 2.90625 -6 C 2.457031 -5.425781 2.234375 -4.632812 2.234375 -3.625 C 2.234375 -2.625 2.453125 -1.828125 2.890625 -1.234375 C 3.347656 -0.628906 3.96875 -0.328125 4.75 -0.328125 C 5.320312 -0.328125 5.789062 -0.414062 6.15625 -0.59375 C 6.519531 -0.769531 6.8125 -1.050781 7.03125 -1.4375 C 7.25 -1.820312 7.410156 -2.347656 7.515625 -3.015625 L 7.59375 -3.015625 L 7.734375 -1.203125 C 7.492188 -0.796875 7.117188 -0.46875 6.609375 -0.21875 C 6.097656 0.03125 5.472656 0.15625 4.734375 0.15625 Z M 4.734375 0.15625 "/></g></g></g><g fill="#dcdcdc" fill-opacity="1"><g transform="translate(145.125172, 198.476046)"><g><path d="M 6.953125 -5.5 L 6.953125 -5.609375 C 6.953125 -5.953125 6.851562 -6.222656 6.65625 -6.421875 C 6.46875 -6.617188 6.203125 -6.722656 5.859375 -6.734375 L 4.46875 -6.734375 L 4.46875 -0.75 C 4.46875 -0.570312 4.53125 -0.421875 4.65625 -0.296875 C 4.789062 -0.179688 4.945312 -0.125 5.125 -0.125 L 5.25 -0.125 L 5.25 0 L 1.9375 0 L 1.9375 -0.125 L 2.0625 -0.125 C 2.25 -0.125 2.40625 -0.179688 2.53125 -0.296875 C 2.65625 -0.421875 2.71875 -0.570312 2.71875 -0.75 L 2.71875 -6.734375 L 1.34375 -6.734375 C 0.988281 -6.722656 0.710938 -6.617188 0.515625 -6.421875 C 0.328125 -6.222656 0.234375 -5.953125 0.234375 -5.609375 L 0.234375 -5.5 L 0.125 -5.5 L 0.125 -7.390625 C 0.226562 -7.347656 0.410156 -7.304688 0.671875 -7.265625 C 0.929688 -7.234375 1.164062 -7.21875 1.375 -7.21875 L 5.8125 -7.21875 C 6.164062 -7.21875 6.453125 -7.242188 6.671875 -7.296875 C 6.898438 -7.347656 7.03125 -7.378906 7.0625 -7.390625 L 7.0625 -5.5 Z M 6.953125 -5.5 "/></g></g></g><g fill="#dcdcdc" fill-opacity="1"><g transform="translate(159.513181, 198.476046)"><g><path d="M 0.40625 -0.125 L 0.546875 -0.125 C 0.742188 -0.125 0.910156 -0.179688 1.046875 -0.296875 C 1.179688 -0.421875 1.25 -0.570312 1.25 -0.75 L 1.25 -6.4375 C 1.25 -6.613281 1.179688 -6.765625 1.046875 -6.890625 C 0.910156 -7.015625 0.742188 -7.078125 0.546875 -7.078125 L 0.40625 -7.078125 L 0.40625 -7.203125 L 3.8125 -7.203125 L 3.8125 -7.078125 L 3.671875 -7.078125 C 3.484375 -7.078125 3.320312 -7.015625 3.1875 -6.890625 C 3.050781 -6.773438 2.976562 -6.628906 2.96875 -6.453125 L 2.96875 -0.75 C 2.976562 -0.570312 3.050781 -0.421875 3.1875 -0.296875 C 3.320312 -0.179688 3.484375 -0.125 3.671875 -0.125 L 3.8125 -0.125 L 3.8125 0 L 0.40625 0 Z M 0.40625 -0.125 "/></g></g></g><g fill="#dcdcdc" fill-opacity="1"><g transform="translate(170.937193, 198.476046)"><g><path d="M 4.734375 0.15625 C 3.390625 0.144531 2.332031 -0.1875 1.5625 -0.84375 C 0.789062 -1.507812 0.40625 -2.425781 0.40625 -3.59375 C 0.40625 -4.769531 0.785156 -5.691406 1.546875 -6.359375 C 2.316406 -7.023438 3.378906 -7.359375 4.734375 -7.359375 C 5.785156 -7.359375 6.679688 -7.171875 7.421875 -6.796875 L 7.421875 -4.890625 L 7.34375 -4.890625 C 7.144531 -5.609375 6.835938 -6.117188 6.421875 -6.421875 C 6.003906 -6.722656 5.476562 -6.875 4.84375 -6.875 C 4 -6.875 3.351562 -6.582031 2.90625 -6 C 2.457031 -5.425781 2.234375 -4.632812 2.234375 -3.625 C 2.234375 -2.625 2.453125 -1.828125 2.890625 -1.234375 C 3.347656 -0.628906 3.96875 -0.328125 4.75 -0.328125 C 5.320312 -0.328125 5.789062 -0.414062 6.15625 -0.59375 C 6.519531 -0.769531 6.8125 -1.050781 7.03125 -1.4375 C 7.25 -1.820312 7.410156 -2.347656 7.515625 -3.015625 L 7.59375 -3.015625 L 7.734375 -1.203125 C 7.492188 -0.796875 7.117188 -0.46875 6.609375 -0.21875 C 6.097656 0.03125 5.472656 0.15625 4.734375 0.15625 Z M 4.734375 0.15625 "/></g></g></g><g fill="#dcdcdc" fill-opacity="1"><g transform="translate(186.321204, 198.476046)"><g><path d="M 6.0625 0 L 0.40625 0 L 0.40625 -0.125 L 0.546875 -0.125 C 0.734375 -0.125 0.890625 -0.179688 1.015625 -0.296875 C 1.140625 -0.421875 1.207031 -0.570312 1.21875 -0.75 L 1.21875 -6.453125 C 1.207031 -6.628906 1.140625 -6.773438 1.015625 -6.890625 C 0.890625 -7.015625 0.734375 -7.078125 0.546875 -7.078125 L 0.40625 -7.078125 L 0.40625 -7.203125 L 4.625 -7.203125 C 4.84375 -7.203125 5.078125 -7.21875 5.328125 -7.25 C 5.585938 -7.289062 5.769531 -7.332031 5.875 -7.375 L 5.875 -5.46875 L 5.765625 -5.46875 L 5.765625 -5.578125 C 5.765625 -5.929688 5.664062 -6.207031 5.46875 -6.40625 C 5.28125 -6.601562 5.015625 -6.707031 4.671875 -6.71875 L 2.9375 -6.71875 L 2.9375 -3.796875 L 4.3125 -3.796875 C 4.582031 -3.804688 4.800781 -3.898438 4.96875 -4.078125 C 5.132812 -4.253906 5.21875 -4.476562 5.21875 -4.75 L 5.21875 -4.84375 L 5.34375 -4.84375 L 5.34375 -2.296875 L 5.21875 -2.296875 L 5.21875 -2.375 C 5.21875 -2.75 5.078125 -3.019531 4.796875 -3.1875 C 4.648438 -3.28125 4.488281 -3.328125 4.3125 -3.328125 L 2.9375 -3.328125 L 2.9375 -0.484375 L 4.375 -0.484375 C 4.875 -0.484375 5.296875 -0.632812 5.640625 -0.9375 C 5.992188 -1.238281 6.25 -1.660156 6.40625 -2.203125 L 6.515625 -2.203125 Z M 6.0625 0 "/></g></g></g><g fill="#dcdcdc" fill-opacity="1"><g transform="translate(200.277216, 198.476046)"><g/></g></g><g fill="#dcdcdc" fill-opacity="1"><g transform="translate(210.477231, 198.476046)"><g><path d="M 8.859375 -0.125 L 8.96875 -0.125 L 8.96875 0 L 5.140625 0 L 5.140625 -0.125 L 5.25 -0.125 C 5.425781 -0.125 5.554688 -0.175781 5.640625 -0.28125 C 5.722656 -0.382812 5.765625 -0.484375 5.765625 -0.578125 C 5.765625 -0.679688 5.742188 -0.78125 5.703125 -0.875 L 5.109375 -2.359375 L 2.3125 -2.359375 L 1.6875 -0.875 C 1.644531 -0.769531 1.625 -0.671875 1.625 -0.578125 C 1.625 -0.484375 1.664062 -0.382812 1.75 -0.28125 C 1.84375 -0.175781 1.976562 -0.125 2.15625 -0.125 L 2.25 -0.125 L 2.25 0 L -0.328125 0 L -0.328125 -0.125 L -0.21875 -0.125 C -0.03125 -0.125 0.148438 -0.175781 0.328125 -0.28125 C 0.515625 -0.394531 0.671875 -0.566406 0.796875 -0.796875 L 3.5625 -7.0625 C 3.9375 -7.851562 4.140625 -8.378906 4.171875 -8.640625 L 4.28125 -8.640625 L 7.84375 -0.8125 C 7.957031 -0.582031 8.109375 -0.410156 8.296875 -0.296875 C 8.484375 -0.179688 8.671875 -0.125 8.859375 -0.125 Z M 2.515625 -2.859375 L 4.90625 -2.859375 L 3.75 -5.8125 Z M 2.515625 -2.859375 "/></g></g></g><g fill="#dcdcdc" fill-opacity="1"><g transform="translate(226.269253, 198.476046)"><g><path d="M 3.390625 -6.703125 L 3.015625 -6.703125 L 3.015625 -0.75 C 3.015625 -0.5625 3.078125 -0.410156 3.203125 -0.296875 C 3.335938 -0.179688 3.488281 -0.125 3.65625 -0.125 L 3.796875 -0.125 L 3.796875 0 L 0.484375 0 L 0.484375 -0.125 L 0.640625 -0.125 C 0.816406 -0.125 0.960938 -0.179688 1.078125 -0.296875 C 1.203125 -0.421875 1.265625 -0.570312 1.265625 -0.75 L 1.265625 -6.453125 C 1.265625 -6.628906 1.203125 -6.773438 1.078125 -6.890625 C 0.960938 -7.015625 0.816406 -7.078125 0.640625 -7.078125 L 0.484375 -7.078125 L 0.484375 -7.203125 L 4.171875 -7.203125 C 4.890625 -7.203125 5.492188 -7.0625 5.984375 -6.78125 C 6.523438 -6.46875 6.796875 -5.953125 6.796875 -5.234375 C 6.796875 -4.765625 6.65625 -4.34375 6.375 -3.96875 C 6.101562 -3.601562 5.691406 -3.378906 5.140625 -3.296875 C 5.347656 -3.222656 5.554688 -3.085938 5.765625 -2.890625 C 5.984375 -2.691406 6.15625 -2.488281 6.28125 -2.28125 C 6.539062 -1.820312 6.8125 -1.398438 7.09375 -1.015625 C 7.375 -0.640625 7.597656 -0.394531 7.765625 -0.28125 C 7.941406 -0.175781 8.15625 -0.125 8.40625 -0.125 L 8.40625 0 L 7.390625 0 C 6.722656 0 6.210938 -0.078125 5.859375 -0.234375 C 5.503906 -0.398438 5.1875 -0.707031 4.90625 -1.15625 C 4.476562 -1.84375 4.210938 -2.382812 4.109375 -2.78125 C 4.003906 -3.019531 3.882812 -3.195312 3.75 -3.3125 C 3.625 -3.4375 3.503906 -3.507812 3.390625 -3.53125 L 3.390625 -3.625 L 3.6875 -3.625 C 4.363281 -3.632812 4.78125 -4.035156 4.9375 -4.828125 C 4.96875 -4.941406 4.984375 -5.039062 4.984375 -5.125 C 4.984375 -5.21875 4.976562 -5.34375 4.96875 -5.5 C 4.957031 -5.65625 4.90625 -5.832031 4.8125 -6.03125 C 4.726562 -6.226562 4.613281 -6.367188 4.46875 -6.453125 C 4.21875 -6.609375 3.960938 -6.691406 3.703125 -6.703125 C 3.609375 -6.703125 3.503906 -6.703125 3.390625 -6.703125 Z M 3.390625 -6.703125 "/></g></g></g><g fill="#dcdcdc" fill-opacity="1"><g transform="translate(241.353274, 198.476046)"><g><path d="M 8 -0.125 L 8.09375 -0.125 L 8.09375 0 L 4.5625 0 L 4.5625 -0.125 L 4.65625 -0.125 C 4.820312 -0.125 4.9375 -0.171875 5 -0.265625 C 5.070312 -0.359375 5.109375 -0.441406 5.109375 -0.515625 C 5.109375 -0.597656 5.09375 -0.6875 5.0625 -0.78125 L 4.59375 -1.890625 L 2.0625 -1.890625 L 1.578125 -0.765625 C 1.546875 -0.679688 1.53125 -0.597656 1.53125 -0.515625 C 1.53125 -0.429688 1.566406 -0.34375 1.640625 -0.25 C 1.710938 -0.164062 1.832031 -0.125 2 -0.125 L 2.09375 -0.125 L 2.09375 0 L -0.3125 0 L -0.3125 -0.125 L -0.21875 -0.125 C -0.0390625 -0.125 0.128906 -0.175781 0.296875 -0.28125 C 0.460938 -0.382812 0.597656 -0.539062 0.703125 -0.75 L 3.1875 -6.078125 C 3.539062 -6.867188 3.722656 -7.351562 3.734375 -7.53125 L 3.84375 -7.53125 L 7.0625 -0.796875 C 7.164062 -0.554688 7.300781 -0.382812 7.46875 -0.28125 C 7.644531 -0.175781 7.820312 -0.125 8 -0.125 Z M 2.265625 -2.359375 L 4.390625 -2.359375 L 3.34375 -4.859375 Z M 2.265625 -2.359375 "/></g></g></g><g fill="#dcdcdc" fill-opacity="1"><g transform="translate(256.28129, 198.476046)"><g><path d="M 6.359375 -5.40625 C 6.359375 -5.113281 6.296875 -4.851562 6.171875 -4.625 C 5.921875 -4.195312 5.546875 -3.960938 5.046875 -3.921875 C 5.578125 -3.878906 6.019531 -3.6875 6.375 -3.34375 C 6.738281 -3.007812 6.921875 -2.578125 6.921875 -2.046875 C 6.921875 -1.015625 6.300781 -0.367188 5.0625 -0.109375 C 4.707031 -0.0351562 4.320312 0 3.90625 0 L 0.4375 0 L 0.4375 -0.125 L 0.5625 -0.125 C 0.75 -0.125 0.90625 -0.179688 1.03125 -0.296875 C 1.15625 -0.421875 1.21875 -0.570312 1.21875 -0.75 L 1.21875 -6.4375 C 1.21875 -6.726562 1.082031 -6.925781 0.8125 -7.03125 C 0.738281 -7.0625 0.65625 -7.078125 0.5625 -7.078125 L 0.4375 -7.078125 L 0.4375 -7.203125 L 3.640625 -7.203125 C 5.453125 -7.203125 6.359375 -6.601562 6.359375 -5.40625 Z M 4.984375 -2.15625 C 4.984375 -2.53125 4.90625 -2.835938 4.75 -3.078125 C 4.46875 -3.554688 3.984375 -3.796875 3.296875 -3.796875 C 3.285156 -3.796875 3.28125 -3.796875 3.28125 -3.796875 L 3.28125 -3.90625 C 3.664062 -3.90625 3.976562 -4.015625 4.21875 -4.234375 C 4.457031 -4.460938 4.578125 -4.816406 4.578125 -5.296875 C 4.578125 -6.253906 4.140625 -6.734375 3.265625 -6.734375 L 2.921875 -6.734375 L 2.921875 -0.484375 L 3.40625 -0.484375 C 3.875 -0.484375 4.253906 -0.617188 4.546875 -0.890625 C 4.835938 -1.160156 4.984375 -1.582031 4.984375 -2.15625 Z M 4.984375 -2.15625 "/></g></g></g><g fill="#dcdcdc" fill-opacity="1"><g transform="translate(270.729306, 198.476046)"><g><path d="M 0.40625 -0.125 L 0.546875 -0.125 C 0.742188 -0.125 0.910156 -0.179688 1.046875 -0.296875 C 1.179688 -0.421875 1.25 -0.570312 1.25 -0.75 L 1.25 -6.4375 C 1.25 -6.613281 1.179688 -6.765625 1.046875 -6.890625 C 0.910156 -7.015625 0.742188 -7.078125 0.546875 -7.078125 L 0.40625 -7.078125 L 0.40625 -7.203125 L 3.8125 -7.203125 L 3.8125 -7.078125 L 3.671875 -7.078125 C 3.484375 -7.078125 3.320312 -7.015625 3.1875 -6.890625 C 3.050781 -6.773438 2.976562 -6.628906 2.96875 -6.453125 L 2.96875 -0.75 C 2.976562 -0.570312 3.050781 -0.421875 3.1875 -0.296875 C 3.320312 -0.179688 3.484375 -0.125 3.671875 -0.125 L 3.8125 -0.125 L 3.8125 0 L 0.40625 0 Z M 0.40625 -0.125 "/></g></g></g><g fill="#dcdcdc" fill-opacity="1"><g transform="translate(282.153313, 198.476046)"><g><path d="M 4.734375 0.15625 C 3.390625 0.144531 2.332031 -0.1875 1.5625 -0.84375 C 0.789062 -1.507812 0.40625 -2.425781 0.40625 -3.59375 C 0.40625 -4.769531 0.785156 -5.691406 1.546875 -6.359375 C 2.316406 -7.023438 3.378906 -7.359375 4.734375 -7.359375 C 5.785156 -7.359375 6.679688 -7.171875 7.421875 -6.796875 L 7.421875 -4.890625 L 7.34375 -4.890625 C 7.144531 -5.609375 6.835938 -6.117188 6.421875 -6.421875 C 6.003906 -6.722656 5.476562 -6.875 4.84375 -6.875 C 4 -6.875 3.351562 -6.582031 2.90625 -6 C 2.457031 -5.425781 2.234375 -4.632812 2.234375 -3.625 C 2.234375 -2.625 2.453125 -1.828125 2.890625 -1.234375 C 3.347656 -0.628906 3.96875 -0.328125 4.75 -0.328125 C 5.320312 -0.328125 5.789062 -0.414062 6.15625 -0.59375 C 6.519531 -0.769531 6.8125 -1.050781 7.03125 -1.4375 C 7.25 -1.820312 7.410156 -2.347656 7.515625 -3.015625 L 7.59375 -3.015625 L 7.734375 -1.203125 C 7.492188 -0.796875 7.117188 -0.46875 6.609375 -0.21875 C 6.097656 0.03125 5.472656 0.15625 4.734375 0.15625 Z M 4.734375 0.15625 "/></g></g></g><g fill="#000000" fill-opacity="1"><g transform="translate(39.742934, 57.902749)"><g><path d="M 6.40625 -5.390625 L 5.015625 -5.390625 L 4.625 -3.1875 L 5.875 -3.1875 L 5.875 -2.609375 L 4.53125 -2.609375 L 4.0625 0 L 3.46875 0 L 3.921875 -2.609375 L 2.125 -2.609375 L 1.671875 0 L 1.0625 0 L 1.53125 -2.609375 L 0.234375 -2.609375 L 0.234375 -3.1875 L 1.625 -3.1875 L 2.015625 -5.390625 L 0.765625 -5.390625 L 0.765625 -5.96875 L 2.125 -5.96875 L 2.546875 -8.40625 L 3.15625 -8.40625 L 2.71875 -5.96875 L 4.53125 -5.96875 L 4.9375 -8.40625 L 5.5625 -8.40625 L 5.125 -5.96875 L 6.40625 -5.96875 Z M 4.03125 -3.1875 L 4.421875 -5.390625 L 2.609375 -5.390625 L 2.234375 -3.1875 Z M 4.03125 -3.1875 "/></g></g></g></svg>